<svg width="14" height="19" viewBox="0 0 14 19" fill="none" xmlns="http://www.w3.org/2000/svg">
<g clip-path="url(#clip0_3_140)">
<g clip-path="url(#clip1_3_140)">
<g clip-path="url(#clip2_3_140)">
<mask id="mask0_3_140" style="mask-type:luminance" maskUnits="userSpaceOnUse" x="0" y="-1" width="14" height="20">
<path d="M13.4127 -0.00012207H0.972656V18.6599H13.4127V-0.00012207Z" fill="white"/>
</mask>
<g mask="url(#mask0_3_140)">
<path d="M7.19141 9.3309C7.19141 7.63081 8.56961 6.25256 10.2697 6.25256C11.9698 6.25256 13.3481 7.63081 13.3481 9.3309C13.3481 11.031 11.9698 12.4093 10.2697 12.4093C8.56961 12.4093 7.19141 11.031 7.19141 9.3309Z" fill="#1ABCFE"/>
<path d="M1.03711 15.4857C1.03711 13.7855 2.41533 12.4073 4.11545 12.4073H7.19378V15.4857C7.19378 17.1858 5.81558 18.564 4.11545 18.564C2.41533 18.564 1.03711 17.1858 1.03711 15.4857Z" fill="#0ACF83"/>
<path d="M7.19141 0.0955811V6.25224H10.2697C11.9699 6.25224 13.3481 4.87403 13.3481 3.17392C13.3481 1.4738 11.9699 0.0955811 10.2697 0.0955811H7.19141Z" fill="#FF7262"/>
<path d="M1.03711 3.17392C1.03711 4.87403 2.41533 6.25224 4.11545 6.25224H7.19378V0.0955811H4.11545C2.41533 0.0955811 1.03711 1.4738 1.03711 3.17392Z" fill="#F24E1E"/>
<path d="M1.03711 9.3309C1.03711 11.031 2.41533 12.4093 4.11545 12.4093H7.19378V6.25256H4.11545C2.41533 6.25256 1.03711 7.63081 1.03711 9.3309Z" fill="#A259FF"/>
</g>
</g>
</g>
</g>
<defs>
<clipPath id="clip0_3_140">
<rect width="14" height="18.66" fill="white"/>
</clipPath>
<clipPath id="clip1_3_140">
<rect width="14" height="18.66" fill="white"/>
</clipPath>
<clipPath id="clip2_3_140">
<rect width="13.995" height="18.66" fill="white" transform="translate(0.00195312 -0.00012207)"/>
</clipPath>
</defs>
</svg>
