<svg width="220" height="42" viewBox="0 0 220 42" fill="none" xmlns="http://www.w3.org/2000/svg">
<g clip-path="url(#clip0_81_22)">
<path d="M28 0H14C6.26801 0 0 6.26801 0 14V28C0 35.732 6.26801 42 14 42H28C35.732 42 42 35.732 42 28V14C42 6.26801 35.732 0 28 0Z" fill="#030303"/>
<path fill-rule="evenodd" clip-rule="evenodd" d="M14.0008 1.13755C6.89702 1.13755 1.13828 6.89629 1.13828 14V28.0001C1.13828 35.1038 6.89702 40.8626 14.0008 40.8626H28.0008C35.1045 40.8626 40.8633 35.1038 40.8633 28.0001V14C40.8633 6.89629 35.1045 1.13755 28.0008 1.13755H14.0008ZM-0.261719 14C-0.261719 6.12309 6.12382 -0.262451 14.0008 -0.262451H28.0008C35.8777 -0.262451 42.2633 6.12309 42.2633 14V28.0001C42.2633 35.877 35.8777 42.2626 28.0008 42.2626H14.0008C6.12382 42.2626 -0.261719 35.877 -0.261719 28.0001V14Z" fill="url(#paint0_linear_81_22)" fill-opacity="0.25"/>
<path d="M24.2315 13.4613C20.663 13.4613 13.5152 10.5686 13.5152 7H13.4623C13.4623 9.85609 14.5969 12.5953 16.6164 14.6149C18.636 16.6344 21.375 17.7691 24.2312 17.7692C25.9448 17.7692 27.5883 18.45 28.8001 19.6617C30.012 20.8735 30.6927 22.517 30.6927 24.2306C30.6931 25.9443 30.0126 27.588 28.8011 28.8C27.5895 30.0121 25.9462 30.6931 24.2325 30.6935C22.5187 30.6938 20.8751 30.0133 19.6631 28.8018C18.451 27.5902 17.7699 25.9468 17.7696 24.2332C17.7696 22.8189 17.491 21.4185 16.9497 20.112C16.4085 18.8054 15.6152 17.6182 14.6151 16.6183C13.6151 15.6182 12.4279 14.825 11.1213 14.2839C9.8147 13.7427 8.41425 13.4641 7 13.4642V13.5167C10.5679 13.5167 13.4607 20.6615 13.462 24.2305C13.462 26.3605 14.0928 28.4426 15.2761 30.2136C16.4595 31.9846 18.1413 33.365 20.1091 34.18C22.077 34.9953 24.2422 35.2086 26.3313 34.7931C28.4203 34.3777 30.3392 33.352 31.8454 31.8461C33.3515 30.34 34.3773 28.4212 34.793 26.3321C35.2086 24.2432 34.9954 22.0778 34.1805 20.11C33.3655 18.1421 31.9853 16.4601 30.2144 15.2766C28.4434 14.0932 26.3613 13.4614 24.2315 13.4613Z" fill="white"/>
</g>
<path d="M203.455 30.8001V10.6401H206.871L216.223 24.8501V10.6401H219.639V30.8001H216.223L206.871 16.5901V30.8001H203.455Z" fill="#030303"/>
<path d="M191.262 31.2202C189.956 31.2202 188.728 30.9915 187.58 30.5342C186.442 30.0675 185.438 29.3862 184.57 28.4902C183.712 27.5942 183.04 26.4975 182.554 25.2002C182.069 23.8935 181.826 22.4002 181.826 20.7202C181.826 18.5175 182.237 16.6369 183.058 15.0782C183.88 13.5102 185.004 12.3109 186.432 11.4802C187.86 10.6402 189.47 10.2202 191.262 10.2202C193.745 10.2202 195.71 10.7989 197.156 11.9562C198.612 13.1042 199.597 14.7189 200.11 16.8002L196.666 17.3462C196.284 16.1515 195.658 15.1995 194.79 14.4902C193.922 13.7715 192.816 13.4122 191.472 13.4122C190.119 13.3935 188.994 13.6875 188.098 14.2942C187.202 14.9009 186.526 15.7549 186.068 16.8562C185.62 17.9575 185.396 19.2455 185.396 20.7202C185.396 22.1949 185.62 23.4782 186.068 24.5702C186.516 25.6529 187.188 26.4975 188.084 27.1042C188.99 27.7109 190.119 28.0236 191.472 28.0422C192.49 28.0515 193.381 27.8695 194.146 27.4962C194.912 27.1135 195.537 26.5395 196.022 25.7742C196.508 24.9995 196.834 24.0335 197.002 22.8762H193.446V20.2302H200.586C200.605 20.3795 200.619 20.5989 200.628 20.8882C200.638 21.1775 200.642 21.3502 200.642 21.4062C200.642 23.3102 200.264 25.0042 199.508 26.4882C198.762 27.9629 197.688 29.1202 196.288 29.9602C194.888 30.8002 193.213 31.2202 191.262 31.2202Z" fill="#030303"/>
<path d="M175.379 30.8001V10.6401H178.753V30.8001H175.379Z" fill="#030303"/>
<path d="M164.158 31.2203C162.684 31.2203 161.354 30.9637 160.168 30.4503C158.992 29.937 158.022 29.2043 157.256 28.2523C156.5 27.291 156.02 26.1523 155.814 24.8363L159.314 24.3043C159.613 25.499 160.224 26.423 161.148 27.0763C162.082 27.7297 163.155 28.0563 164.368 28.0563C165.087 28.0563 165.764 27.9443 166.398 27.7203C167.033 27.4963 167.546 27.1697 167.938 26.7403C168.34 26.311 168.54 25.7837 168.54 25.1583C168.54 24.8783 168.494 24.6217 168.4 24.3883C168.307 24.1457 168.167 23.931 167.98 23.7443C167.803 23.5577 167.57 23.3897 167.28 23.2403C167 23.0817 166.674 22.9463 166.3 22.8343L161.092 21.2943C160.644 21.1637 160.159 20.991 159.636 20.7763C159.123 20.5523 158.633 20.249 158.166 19.8663C157.709 19.4743 157.331 18.9797 157.032 18.3823C156.743 17.7757 156.598 17.029 156.598 16.1423C156.598 14.845 156.925 13.7577 157.578 12.8803C158.241 11.9937 159.128 11.331 160.238 10.8923C161.358 10.4537 162.6 10.239 163.962 10.2483C165.344 10.2577 166.576 10.4957 167.658 10.9623C168.741 11.4197 169.646 12.087 170.374 12.9643C171.102 13.8417 171.616 14.901 171.914 16.1423L168.288 16.7723C168.139 16.063 167.85 15.461 167.42 14.9663C167 14.4623 166.482 14.0797 165.866 13.8183C165.26 13.557 164.611 13.417 163.92 13.3983C163.248 13.389 162.623 13.4917 162.044 13.7063C161.475 13.9117 161.013 14.2103 160.658 14.6023C160.313 14.9943 160.14 15.4517 160.14 15.9743C160.14 16.469 160.29 16.875 160.588 17.1923C160.887 17.5003 161.256 17.7477 161.694 17.9343C162.142 18.1117 162.595 18.261 163.052 18.3823L166.664 19.3903C167.159 19.521 167.714 19.6983 168.33 19.9223C168.946 20.1463 169.539 20.459 170.108 20.8603C170.678 21.2617 171.144 21.789 171.508 22.4423C171.882 23.0957 172.068 23.9263 172.068 24.9343C172.068 25.9797 171.849 26.899 171.41 27.6923C170.981 28.4763 170.398 29.1297 169.66 29.6523C168.923 30.175 168.078 30.567 167.126 30.8283C166.184 31.0897 165.194 31.2203 164.158 31.2203Z" fill="#030303"/>
<path d="M140.51 30.8001V10.6401H153.53V13.8041H143.884V18.7741H151.85V21.9381H143.884V27.6361H153.53V30.8001H140.51Z" fill="#030303"/>
<path d="M120.904 30.8001V10.6401H127.33C127.498 10.6401 127.83 10.6448 128.324 10.6541C128.828 10.6635 129.314 10.6961 129.78 10.7521C131.376 10.9575 132.725 11.5268 133.826 12.4601C134.937 13.3841 135.777 14.5648 136.346 16.0021C136.916 17.4395 137.2 19.0121 137.2 20.7201C137.2 22.4281 136.916 24.0008 136.346 25.4381C135.777 26.8755 134.937 28.0608 133.826 28.9941C132.725 29.9181 131.376 30.4828 129.78 30.6881C129.323 30.7441 128.842 30.7768 128.338 30.7861C127.834 30.7955 127.498 30.8001 127.33 30.8001H120.904ZM124.334 27.6221H127.33C127.61 27.6221 127.965 27.6128 128.394 27.5941C128.833 27.5755 129.22 27.5335 129.556 27.4681C130.508 27.2908 131.283 26.8661 131.88 26.1941C132.478 25.5221 132.916 24.7055 133.196 23.7441C133.486 22.7828 133.63 21.7748 133.63 20.7201C133.63 19.6281 133.486 18.6015 133.196 17.6401C132.907 16.6788 132.459 15.8715 131.852 15.2181C131.255 14.5648 130.49 14.1495 129.556 13.9721C129.22 13.8975 128.833 13.8555 128.394 13.8461C127.965 13.8275 127.61 13.8181 127.33 13.8181H124.334V27.6221Z" fill="#030303"/>
<path d="M102.851 31.2202C100.835 31.2202 99.1084 30.7815 97.6711 29.9042C96.2337 29.0175 95.1277 27.7855 94.3531 26.2082C93.5877 24.6309 93.2051 22.8015 93.2051 20.7202C93.2051 18.6389 93.5877 16.8095 94.3531 15.2322C95.1277 13.6549 96.2337 12.4275 97.6711 11.5502C99.1084 10.6635 100.835 10.2202 102.851 10.2202C104.867 10.2202 106.594 10.6635 108.031 11.5502C109.478 12.4275 110.584 13.6549 111.349 15.2322C112.124 16.8095 112.511 18.6389 112.511 20.7202C112.511 22.8015 112.124 24.6309 111.349 26.2082C110.584 27.7855 109.478 29.0175 108.031 29.9042C106.594 30.7815 104.867 31.2202 102.851 31.2202ZM102.851 28.0422C104.204 28.0515 105.329 27.7529 106.225 27.1462C107.13 26.5395 107.807 25.6855 108.255 24.5842C108.712 23.4829 108.941 22.1949 108.941 20.7202C108.941 19.2455 108.712 17.9669 108.255 16.8842C107.807 15.7922 107.13 14.9429 106.225 14.3362C105.329 13.7295 104.204 13.4169 102.851 13.3982C101.498 13.3889 100.373 13.6875 99.4771 14.2942C98.5811 14.9009 97.9044 15.7549 97.4471 16.8562C96.9991 17.9575 96.7751 19.2455 96.7751 20.7202C96.7751 22.1949 96.9991 23.4782 97.4471 24.5702C97.8951 25.6529 98.5671 26.4975 99.4631 27.1042C100.368 27.7109 101.498 28.0236 102.851 28.0422Z" fill="#030303"/>
<path d="M75.8418 30.8001V10.6401H84.1718C84.3678 10.6401 84.6198 10.6495 84.9278 10.6681C85.2358 10.6775 85.5205 10.7055 85.7818 10.7521C86.9485 10.9295 87.9098 11.3168 88.6658 11.9141C89.4311 12.5115 89.9958 13.2675 90.3598 14.1821C90.7331 15.0875 90.9198 16.0955 90.9198 17.2061C90.9198 18.8488 90.5045 20.2628 89.6738 21.4481C88.8431 22.6241 87.5691 23.3521 85.8518 23.6321L84.4098 23.7581H79.2158V30.8001H75.8418ZM87.4198 30.8001L83.4438 22.5961L86.8738 21.8401L91.2418 30.8001H87.4198ZM79.2158 20.6081H84.0318C84.2185 20.6081 84.4285 20.5988 84.6618 20.5801C84.8951 20.5615 85.1098 20.5241 85.3058 20.4681C85.8658 20.3281 86.3045 20.0808 86.6218 19.7261C86.9485 19.3715 87.1771 18.9701 87.3078 18.5221C87.4478 18.0741 87.5178 17.6355 87.5178 17.2061C87.5178 16.7768 87.4478 16.3381 87.3078 15.8901C87.1771 15.4328 86.9485 15.0268 86.6218 14.6721C86.3045 14.3175 85.8658 14.0701 85.3058 13.9301C85.1098 13.8741 84.8951 13.8415 84.6618 13.8321C84.4285 13.8135 84.2185 13.8041 84.0318 13.8041H79.2158V20.6081Z" fill="#030303"/>
<path d="M57.959 30.8001V10.6401H66.289C66.485 10.6401 66.737 10.6495 67.045 10.6681C67.353 10.6775 67.6377 10.7055 67.899 10.7521C69.0657 10.9295 70.027 11.3168 70.783 11.9141C71.5483 12.5115 72.113 13.2675 72.477 14.1821C72.8503 15.0875 73.037 16.0955 73.037 17.2061C73.037 18.3075 72.8503 19.3155 72.477 20.2301C72.1037 21.1355 71.5343 21.8868 70.769 22.4841C70.013 23.0815 69.0563 23.4688 67.899 23.6461C67.6377 23.6835 67.3483 23.7115 67.031 23.7301C66.723 23.7488 66.4757 23.7581 66.289 23.7581H61.333V30.8001H57.959ZM61.333 20.6081H66.149C66.3357 20.6081 66.5457 20.5988 66.779 20.5801C67.0123 20.5615 67.227 20.5241 67.423 20.4681C67.983 20.3281 68.4217 20.0808 68.739 19.7261C69.0657 19.3715 69.2943 18.9701 69.425 18.5221C69.565 18.0741 69.635 17.6355 69.635 17.2061C69.635 16.7768 69.565 16.3381 69.425 15.8901C69.2943 15.4328 69.0657 15.0268 68.739 14.6721C68.4217 14.3175 67.983 14.0701 67.423 13.9301C67.227 13.8741 67.0123 13.8415 66.779 13.8321C66.5457 13.8135 66.3357 13.8041 66.149 13.8041H61.333V20.6081Z" fill="#030303"/>
<defs>
<linearGradient id="paint0_linear_81_22" x1="21.0008" y1="4.88291e-05" x2="21.0008" y2="42" gradientUnits="userSpaceOnUse">
<stop stop-color="white"/>
<stop offset="1" stop-color="white" stop-opacity="0"/>
</linearGradient>
<clipPath id="clip0_81_22">
<rect width="42" height="42" fill="white"/>
</clipPath>
</defs>
</svg>
