<svg width="120" height="120" viewBox="0 0 120 120" fill="none" xmlns="http://www.w3.org/2000/svg">
<circle cx="60" cy="60" r="60" fill="#030303"/>
<path fill-rule="evenodd" clip-rule="evenodd" d="M38.154 45.1676C38 45.9772 38 46.9496 38 48.89V64.4C38 72.6962 38 76.8454 40.5784 79.4216C43.1546 82 47.3038 82 55.6 82H64.4C72.6962 82 76.8454 82 79.4216 79.4216C82 76.8454 82 72.6962 82 64.4V59.5556C82 53.7652 82 50.8678 80.306 48.9868C80.1506 48.8132 79.9861 48.6479 79.8132 48.4918C77.9322 46.8 75.0348 46.8 69.2444 46.8H68.4216C65.885 46.8 64.6156 46.8 63.432 46.4634C62.7825 46.2777 62.1565 46.0179 61.5664 45.689C60.4928 45.0928 59.5952 44.193 57.8 42.4L56.59 41.19C55.9872 40.5872 55.688 40.288 55.3712 40.024C54.0087 38.8946 52.3373 38.2023 50.5752 38.0374C50.166 38 49.7392 38 48.89 38C46.9474 38 45.9772 38 45.1676 38.154C43.4292 38.4823 41.8302 39.3269 40.5791 40.5776C39.3279 41.8284 38.4828 43.4294 38.154 45.1676ZM60.55 55.6C60.55 55.1624 60.7238 54.7427 61.0333 54.4333C61.3427 54.1238 61.7624 53.95 62.2 53.95H73.2C73.6376 53.95 74.0573 54.1238 74.3667 54.4333C74.6762 54.7427 74.85 55.1624 74.85 55.6C74.85 56.0376 74.6762 56.4573 74.3667 56.7667C74.0573 57.0762 73.6376 57.25 73.2 57.25H62.2C61.7624 57.25 61.3427 57.0762 61.0333 56.7667C60.7238 56.4573 60.55 56.0376 60.55 55.6Z" fill="white"/>
</svg>
