<svg width="120" height="120" viewBox="0 0 120 120" fill="none" xmlns="http://www.w3.org/2000/svg">
<circle cx="60" cy="60" r="60" fill="#030303"/>
<path fill-rule="evenodd" clip-rule="evenodd" d="M75.8865 53.5736C72.7086 45.5969 64.0917 41.2917 55.7319 43.4353C52.7247 44.209 49.9847 45.7867 47.8059 47.9991C45.6268 50.2117 44.0912 52.9757 43.3637 55.9948C42.6361 59.0138 42.7442 62.1739 43.6761 65.1362C44.6081 68.0986 46.3289 70.7513 48.6539 72.81C50.9789 74.8686 53.8205 76.2556 56.8738 76.822C59.9272 77.3885 63.0772 77.1131 65.9859 76.0254C68.8946 74.9377 71.4524 73.0787 73.3849 70.6478C75.3174 68.2169 76.5518 65.3058 76.9556 62.2267C77.1311 60.8885 78.3582 59.9459 79.6964 60.1214C81.0346 60.2969 81.9772 61.524 81.8017 62.8622C81.2825 66.8211 79.6955 70.5639 77.2109 73.6894C74.7262 76.8148 71.4376 79.2049 67.6978 80.6034C63.958 82.0019 59.908 82.3559 55.9823 81.6276C52.0566 80.8993 48.4031 79.1161 45.4138 76.4693C42.4245 73.8224 40.2121 70.4117 39.0138 66.603C37.8156 62.7944 37.6767 58.7313 38.6121 54.8497C39.5475 50.9681 41.5219 47.4143 44.3235 44.5695C47.1251 41.7247 50.6483 39.6963 54.5151 38.7016L54.5168 38.7012C65.2135 35.9577 76.3225 41.4619 80.427 51.7646C80.9265 53.0185 80.315 54.4398 79.0612 54.9394C77.8074 55.4389 76.386 54.8274 75.8865 53.5736Z" fill="white"/>
<path fill-rule="evenodd" clip-rule="evenodd" d="M79.5422 38.0062C80.8919 38.0062 81.986 39.1004 81.986 40.45V52.669C81.986 54.0187 80.8919 55.1128 79.5422 55.1128H67.3232C65.9735 55.1128 64.8794 54.0187 64.8794 52.669C64.8794 51.3194 65.9735 50.2252 67.3232 50.2252H77.0984V40.45C77.0984 39.1004 78.1925 38.0062 79.5422 38.0062Z" fill="white"/>
</svg>
