<svg width="18" height="17" viewBox="0 0 18 17" fill="none" xmlns="http://www.w3.org/2000/svg">
<g clip-path="url(#clip0_3_154)">
<g clip-path="url(#clip1_3_154)">
<g clip-path="url(#clip2_3_154)">
<path d="M4.08831 10.7044C4.08831 11.6838 3.28822 12.4839 2.3088 12.4839C1.32938 12.4839 0.529297 11.6838 0.529297 10.7044C0.529297 9.72501 1.32938 8.92493 2.3088 8.92493H4.08831V10.7044Z" fill="#E01E5A"/>
<path d="M4.98438 10.7044C4.98438 9.72501 5.78446 8.92493 6.76388 8.92493C7.7433 8.92493 8.54338 9.72501 8.54338 10.7044V15.1601C8.54338 16.1395 7.7433 16.9396 6.76388 16.9396C5.78446 16.9396 4.98438 16.1395 4.98438 15.1601V10.7044Z" fill="#E01E5A"/>
<path d="M6.76388 3.55901C5.78446 3.55901 4.98438 2.75892 4.98438 1.7795C4.98438 0.800087 5.78446 0 6.76388 0C7.7433 0 8.54338 0.800087 8.54338 1.7795V3.55901H6.76388Z" fill="#36C5F0"/>
<path d="M6.76446 4.4563C7.74387 4.4563 8.54396 5.25639 8.54396 6.2358C8.54396 7.21522 7.74387 8.01531 6.76446 8.01531H2.3088C1.32938 8.01531 0.529297 7.21522 0.529297 6.2358C0.529297 5.25639 1.32938 4.4563 2.3088 4.4563H6.76446Z" fill="#36C5F0"/>
<path d="M13.9082 6.2358C13.9082 5.25639 14.7083 4.4563 15.6878 4.4563C16.6671 4.4563 17.4672 5.25639 17.4672 6.2358C17.4672 7.21522 16.6671 8.01531 15.6878 8.01531H13.9082V6.2358Z" fill="#2EB67D"/>
<path d="M13.0141 6.23516C13.0141 7.21458 12.214 8.01466 11.2345 8.01466C10.2552 8.01466 9.45508 7.21458 9.45508 6.23516V1.7795C9.45508 0.800087 10.2552 0 11.2345 0C12.214 0 13.0141 0.800087 13.0141 1.7795V6.23516Z" fill="#2EB67D"/>
<path d="M11.2345 13.3812C12.214 13.3812 13.0141 14.1813 13.0141 15.1607C13.0141 16.1401 12.214 16.9402 11.2345 16.9402C10.2552 16.9402 9.45508 16.1401 9.45508 15.1607V13.3812H11.2345Z" fill="#ECB22E"/>
<path d="M11.2345 12.4839C10.2552 12.4839 9.45508 11.6838 9.45508 10.7044C9.45508 9.72501 10.2552 8.92493 11.2345 8.92493H15.6903C16.6696 8.92493 17.4697 9.72501 17.4697 10.7044C17.4697 11.6838 16.6696 12.4839 15.6903 12.4839H11.2345Z" fill="#ECB22E"/>
</g>
</g>
</g>
<defs>
<clipPath id="clip0_3_154">
<rect width="18" height="16.94" fill="white"/>
</clipPath>
<clipPath id="clip1_3_154">
<rect width="18" height="16.94" fill="white"/>
</clipPath>
<clipPath id="clip2_3_154">
<rect width="17.9988" height="16.94" fill="white"/>
</clipPath>
</defs>
</svg>
