<svg width="66" height="66" viewBox="0 0 66 66" fill="none" xmlns="http://www.w3.org/2000/svg">
<path d="M28.0301 49.426L16.7947 38.2468L16.7947 36.9619L21.6053 32.1753C23.2598 29.358 25.2979 26.7379 27.6636 24.384C28.3496 23.7014 29.0692 23.0389 29.799 22.4166C36.1363 16.9742 43.9093 13.7706 52.2729 13.1513L53.2514 14.125C52.5621 23.3567 48.5536 32.0533 41.9626 38.6113C39.5969 40.9652 36.9637 42.993 34.1322 44.6392L29.3215 49.4258L28.0301 49.426ZM18.7317 37.6043L28.6758 47.4987L32.9248 43.271L33.1131 43.1271C35.8454 41.5495 38.3894 39.5971 40.6729 37.325C46.6991 31.3289 50.4619 23.4559 51.3367 15.0572C43.7754 15.8319 36.7602 18.8399 30.9913 23.7935C30.2952 24.3858 29.6109 25.0165 28.9568 25.6673C26.6734 27.9393 24.7113 30.4705 23.1255 33.1893L22.9809 33.3767L18.7317 37.6043Z" fill="white"/>
<path d="M22.4507 50.9285L23.742 52.2133L20.8298 55.111L19.5385 53.8261L22.4507 50.9285Z" fill="white"/>
<path d="M16.1797 49.3691L17.471 50.654L14.5571 53.5533L13.2658 52.2685L16.1797 49.3691Z" fill="white"/>
<path d="M15.1519 41.3604L16.4432 42.6452L12.9324 46.1385L11.6411 44.8536L15.1519 41.3604Z" fill="white"/>
<path d="M12.0864 31.6083L11.9485 30.3L20.0579 20.7824L20.9188 20.4745L30.5586 22.213L30.2324 23.9997L21.1105 22.355L13.9596 30.7483L19.7183 35.1732L18.6035 36.6104L12.0864 31.6083Z" fill="white"/>
<path d="M34.7021 54.1107L29.6748 47.6261L31.1191 46.5169L35.5663 52.2467L44.0018 45.1316L42.3488 36.0553L44.1445 35.7308L45.8917 45.3224L45.5823 46.179L36.0168 54.2478L34.7021 54.1107Z" fill="white"/>
<path d="M35.7831 30.5327C34.1201 28.8781 34.1201 26.1879 35.7831 24.5333C37.4443 22.8803 40.1497 22.8787 41.8126 24.5333C43.4756 26.1879 43.4756 28.8781 41.8126 30.5327C40.1497 32.1873 37.446 32.1873 35.7831 30.5327ZM40.5214 25.8181C39.5714 24.8728 38.0245 24.8728 37.0745 25.8181C36.1228 26.765 36.1245 28.3025 37.0745 29.2477C38.0245 30.193 39.5714 30.193 40.5214 29.2477C41.4714 28.3025 41.4714 26.7633 40.5214 25.8181Z" fill="white"/>
<path d="M22.9839 32.0918L34.2176 43.2694L32.9263 44.5542L21.6926 33.3767L22.9839 32.0918Z" fill="white"/>
</svg>
