<svg width="45" height="48" viewBox="0 0 45 48" fill="none" xmlns="http://www.w3.org/2000/svg">
<path fill-rule="evenodd" clip-rule="evenodd" d="M17.4743 43.624C18.3896 43.624 18.8586 43.7341 19.7967 43.7341C21.295 43.7341 24.6824 43.7925 25.8745 43.517C25.7866 43.8508 25.8289 43.7568 25.5683 43.9804C24.2069 45.1277 22.1647 45.6073 20.3504 45.6073C18.9075 45.6073 18.0573 44.4924 17.4743 43.624ZM26.7606 41.5369C26.4154 41.5077 26.3861 41.4234 26.018 41.4526C23.0801 41.7054 21.8 41.6471 18.6894 41.6471C17.9533 41.6471 17.7319 41.5369 17.0316 41.5369V40.1044L22.7803 39.9942C23.435 39.9618 24.2168 39.991 24.8844 39.9942C25.7508 40.0007 26.1352 39.8873 26.982 39.8873C26.9396 40.4058 26.7606 40.9665 26.7606 41.5369ZM27.4251 37.7937L24.9887 37.9007C24.1289 37.8974 23.4416 38.0141 22.4482 38.0141H16.8101C16.8101 36.9252 16.0512 34.8575 15.719 34.0376C14.175 30.2166 11.8332 27.2772 11.8332 22.5004C11.8332 19.6906 12.8071 16.4174 14.5691 14.4437C17.0347 11.6825 19.3571 10.8399 23.1125 10.8399C26.1156 10.8399 29.2847 12.4052 30.8839 13.9965C34.3007 17.3961 33.6981 24.348 31.7015 28.298C31.3758 28.9397 31.1673 29.5555 30.8058 30.1583C30.4508 30.7449 30.1283 31.3055 29.8221 31.9278C29.6365 32.2972 29.5257 32.4236 29.3401 32.7704C28.7245 33.9111 27.4544 36.5428 27.4251 37.7937ZM14.9311 39.7739C14.9311 41.6957 14.6282 42.8559 15.2796 43.9351C15.7388 44.6999 16.1362 45.28 16.6802 45.9541C16.9114 46.2393 17.2697 46.4889 17.5661 46.7254C17.856 46.9523 18.2338 47.1727 18.6214 47.325C20.8167 48.1839 24.4973 47.2894 26.5101 45.7986C29.1842 43.812 28.624 41.2744 29.2624 38.5197C29.9334 35.6256 31.0636 34.0311 32.3632 31.4871C33.5162 29.2217 33.4446 29.7953 34.4348 26.8364C35.464 23.7447 35.9102 18.7214 34.3957 15.6784C34.0439 14.9752 33.728 14.3044 33.2883 13.6983C31.9984 11.9256 30.0083 10.5741 27.9335 9.78664C23.0967 7.94581 17.4682 8.58107 13.7944 12.2399C13.5078 12.5219 13.3482 12.7682 13.0811 13.0663C12.8238 13.3483 12.6186 13.627 12.4069 13.9381C8.85987 19.1461 9.1693 25.1285 11.7978 30.5735C13.2146 33.5098 14.9311 36.3223 14.9311 39.7739Z" fill="white"/>
<path fill-rule="evenodd" clip-rule="evenodd" d="M23.7775 29.543C23.9143 29.2578 23.999 25.8776 23.999 25.2521C24.797 25.4369 26.4288 26.4577 26.4288 27.8934C26.4288 28.8397 24.8133 29.543 23.7775 29.543ZM22.1196 22.06C21.5008 22.0113 19.3543 20.9937 19.3543 19.9729C19.3543 19.1076 19.4129 18.8159 20.1067 18.3006C20.8135 17.7756 21.4714 17.7724 22.3378 17.7724L22.1196 22.06ZM22.4486 14.1426V15.6788C20.4682 15.6788 18.7094 16.3399 17.7778 17.8566C16.9343 19.2437 17.2209 20.9257 18.1785 22.128C18.7941 22.9058 21.0545 24.0433 22.0089 24.2605C22.0089 25.923 21.7841 27.6115 21.7841 29.3227C19.8006 28.8625 18.7094 26.6846 17.804 26.6846C17.0646 26.6846 16.8105 27.2291 16.8105 27.78C16.8105 28.6875 19.1003 30.2949 20.0905 30.7907C20.4032 30.9463 20.5041 30.9982 20.8494 31.131C21.1523 31.2509 21.4454 31.306 21.6767 31.413C21.6767 31.7176 21.6409 32.4565 21.7028 32.7061C21.8852 33.4482 23.7776 34.2325 23.7776 31.6333C25.1846 31.306 25.8133 31.3319 26.9207 30.5801C29.2202 29.0245 28.9303 26.5129 26.9695 24.7207C26.025 23.8586 25.2497 23.5442 24.1065 22.9415C24.1065 21.308 24.328 19.6909 24.328 18.0997C25.2302 18.1742 26.2073 18.9812 26.6764 19.7266C26.9858 20.2159 27.0672 20.5108 27.2692 21.1169C27.8326 22.8021 29.3048 21.885 29.3048 21.1817C29.3048 20.5821 28.9596 19.7201 28.7544 19.3085C28.4124 18.6215 28.2723 18.333 27.7284 17.7983C27.2007 17.2765 27.0118 17.0237 26.3213 16.6672C25.9109 16.4533 24.9923 16.0579 24.4419 16.0093C24.4419 15.4843 24.5299 14.1848 24.3898 13.7537C24.0641 12.7652 22.4486 13.0018 22.4486 14.1426Z" fill="white"/>
<path fill-rule="evenodd" clip-rule="evenodd" d="M1.59039e-05 22.1732C1.59039e-05 23.7872 2.03246 23.0904 3.36791 22.8797C4.10402 22.7631 4.81084 22.6367 5.45247 22.533C5.77493 22.4844 6.21463 22.4325 6.45239 22.3191C7.37743 21.8783 6.94421 20.4135 6.08433 20.4135C5.73908 20.4135 0.67749 21.1491 0.319196 21.4959C0.205196 21.6061 1.59039e-05 21.9755 1.59039e-05 22.1732Z" fill="white"/>
<path fill-rule="evenodd" clip-rule="evenodd" d="M3.10065 10.1789C3.10065 10.9113 4.31553 11.5757 5.1331 12.1169C5.73241 12.5091 7.08741 13.5915 7.74204 13.5915C8.44232 13.5915 9.56278 12.4928 7.8593 11.4947L5.48482 9.89045C4.765 9.41729 4.72266 9.19043 4.09075 9.19043C3.54681 9.19043 3.10065 9.63447 3.10065 10.1789Z" fill="white"/>
<path fill-rule="evenodd" clip-rule="evenodd" d="M37.708 13.9192C37.708 14.3794 38.2422 14.9109 38.7047 14.9109C39.2161 14.9109 39.5939 14.509 39.9424 14.2724C40.874 13.6307 43.2354 12.5224 43.2354 11.939C43.2354 11.2228 43.1507 10.7302 42.1345 10.7302C41.6817 10.7302 38.3725 12.7525 37.9914 13.2095C37.8774 13.3456 37.708 13.7409 37.708 13.9192Z" fill="white"/>
<path fill-rule="evenodd" clip-rule="evenodd" d="M8.84918 30.4241C8.84918 29.6917 8.23684 29.3223 7.85251 29.3223C7.47794 29.3223 3.89185 31.3348 3.72575 31.4872C3.30233 31.8696 3.2665 32.4335 3.62478 32.8646C4.40323 33.7979 6.25324 32.3946 7.77764 31.5585C8.20758 31.3187 8.84918 31.0269 8.84918 30.4241Z" fill="white"/>
<path fill-rule="evenodd" clip-rule="evenodd" d="M38.4824 24.1504C38.4824 25.813 39.8667 25.0644 41.4203 25.2977C41.9968 25.3852 42.7264 25.4014 43.355 25.369C44.5243 25.3106 45.2865 23.2689 42.3519 23.2689C40.2738 23.2689 38.4824 22.893 38.4824 24.1504Z" fill="white"/>
<path fill-rule="evenodd" clip-rule="evenodd" d="M12.7158 1.8178C12.7158 2.56319 12.9113 2.60532 13.3347 3.18217C13.491 3.39606 13.5496 3.51273 13.6962 3.70394C14.4388 4.65025 15.2205 5.99843 15.9241 5.99843C17.3539 5.99843 17.2953 4.95813 16.4029 3.87568C15.5137 2.79 14.5496 0.939453 13.7125 0.939453C13.1718 0.939453 12.7158 1.22796 12.7158 1.8178Z" fill="white"/>
<path fill-rule="evenodd" clip-rule="evenodd" d="M23.002 1.59709L23.1127 4.67585C23.243 6.03375 25.1028 5.89768 25.1028 4.67909C25.1028 1.98919 25.5034 0.608643 23.7772 0.608643C23.4254 0.608643 23.002 1.1693 23.002 1.59709Z" fill="white"/>
<path fill-rule="evenodd" clip-rule="evenodd" d="M33.0664 7.31748C33.0664 8.63978 34.1836 9.25223 35.2096 7.69342C35.4897 7.26562 36.8219 5.57714 36.8219 5.12016C36.8219 4.67941 36.0043 3.09788 34.6917 4.86414C34.4474 5.19471 33.0664 7.06468 33.0664 7.31748Z" fill="white"/>
</svg>
