<svg width="39" height="40" viewBox="0 0 39 40" fill="none" xmlns="http://www.w3.org/2000/svg">
<path d="M35.6826 15.8095L36.7201 14.8442L37.2398 14.3641L37.5013 14.1215C37.6174 14.0028 37.749 13.8703 37.8651 13.7378C38.7917 12.6503 39.204 11.1172 38.9026 9.69423C38.7692 9.02834 38.4765 8.34695 38.0296 7.75158C37.9239 7.60188 37.7905 7.46595 37.6658 7.32485L37.4043 7.05127L36.8898 6.53162C36.2022 5.84508 35.4938 5.18778 34.8096 4.66469C33.4482 3.61681 32.1976 3.09716 31.458 3.91621C30.8465 4.59069 31.4354 5.74011 32.4643 7.00823C32.9788 7.64316 33.604 8.30733 34.2432 8.95948C34.5445 9.26404 34.8459 9.56687 35.1386 9.86283C35.272 10.0039 35.3655 10.1622 35.4227 10.3291C35.5561 10.7042 35.5024 11.1447 35.2945 11.4699C35.246 11.5542 35.1785 11.6282 35.1127 11.7039L34.6433 12.1754L33.6594 13.1527L31.2743 15.541C30.1346 14.3641 28.8009 13.3868 27.6421 12.2374C26.4175 11.0209 25.2033 9.80608 23.9701 8.60332C23.9527 8.58611 23.9389 8.5689 23.9216 8.54653L27.1363 5.35298C27.3667 5.13273 27.6057 4.89874 27.8586 4.65784C27.9348 4.58213 27.9556 4.57352 27.992 4.54255C28.0266 4.51158 28.0578 4.48577 28.0976 4.4634C28.1687 4.41006 28.2483 4.37565 28.3246 4.33607C28.6433 4.19153 28.9949 4.1554 29.3171 4.164C29.641 4.18121 29.9424 4.22595 30.2524 4.24832C30.3286 4.25692 30.4083 4.25692 30.4966 4.24832C30.5988 4.26552 30.6958 4.27069 30.7894 4.26553C30.9799 4.25176 31.1531 4.18637 31.3125 4.05388C31.645 3.7717 31.7334 3.42411 31.5688 2.99221C31.3817 2.54313 30.8379 2.01833 30.0428 1.77227C29.2617 1.50385 28.264 1.56579 27.4221 1.93918C26.996 2.11985 26.615 2.38826 26.2963 2.68766C26.1196 2.85112 26.0295 2.95264 25.91 3.07137L25.5774 3.40174C23.6877 5.24801 21.8136 7.10115 19.9327 8.9528C19.6573 8.37981 19.0719 7.87395 18.6371 7.43689C17.7018 6.49398 16.7526 5.56481 15.7999 4.64427L14.364 3.26602L13.6417 2.57947L13.2832 2.23534C13.1152 2.07188 12.9021 1.89637 12.6978 1.75009C11.856 1.15473 10.8184 0.846736 9.79302 0.882857C8.76935 0.913828 7.76301 1.28377 6.97315 1.92215C6.87095 2.0013 6.77742 2.08561 6.68562 2.1682L6.46391 2.38845L6.11749 2.74463L5.42119 3.45355L4.01472 4.86277L1.43043 7.42999L1.19141 7.68121C1.10307 7.77757 1.0182 7.87909 0.93852 7.98577C0.299378 8.82199 -0.036644 9.87508 0.00317489 10.9247C0.0343529 11.9726 0.437933 13.0033 1.12906 13.7965C1.20873 13.8928 1.31612 13.9995 1.38541 14.0735L4.15676 16.8265L7.11866 19.7551C7.41658 20.0459 7.71275 20.464 8.05919 20.7325L5.42986 23.353L3.42065 25.3525L2.41431 26.3522C2.02459 26.7445 1.6695 27.1936 1.39928 27.6822C1.12041 28.1709 0.916047 28.6991 0.787855 29.2412C0.722035 29.5147 0.682198 29.7918 0.651021 30.0688C0.62504 30.3424 0.62504 30.6504 0.62504 30.8655V33.6943V34.3997V34.7525C0.62504 34.8798 0.630237 35.0484 0.642361 35.1981C0.699522 35.8055 0.895246 36.3957 1.20528 36.9257C1.8219 37.9822 2.92179 38.7444 4.136 38.9423C4.28669 38.9681 4.44259 38.987 4.59326 38.9956C4.75261 39.0042 4.9033 39.0042 5.01069 39.0042H5.72087H7.14464H8.56841C9.00317 39.0128 9.6198 39.018 10.1654 38.9079C11.2792 38.7048 12.3288 38.1904 13.1671 37.4315L15.2249 35.4184L19.0337 31.7137C19.3265 32.242 19.8669 32.7186 20.2757 33.1281C21.211 34.071 22.1602 35.0002 23.1128 35.9207L24.5487 37.299L25.271 37.9855L25.6296 38.3297C25.7976 38.4931 26.0106 38.6686 26.215 38.8149C27.0568 39.4103 28.0943 39.7183 29.1197 39.6822C30.1434 39.6512 31.1498 39.2812 31.9396 38.6429C32.0418 38.5637 32.1353 38.4794 32.2271 38.3968L32.4489 38.1766L32.7953 37.8204L33.4916 37.1115L34.898 35.7022L37.4823 33.135L37.7214 32.8838C37.8097 32.7874 37.8946 32.6859 37.9742 32.5792C38.6134 31.743 38.9494 30.6899 38.9096 29.6403C38.8784 28.5925 38.4748 27.5617 37.7837 26.7686C37.704 26.6722 37.5966 26.5655 37.5274 26.4915L34.756 23.7385L31.7941 20.8099C31.5776 20.5983 31.3645 20.3161 31.1238 20.0734C31.2658 19.941 31.4027 19.8085 31.5412 19.6777L35.6775 15.801L35.6826 15.8095ZM3.20584 12.2804C2.4922 11.6196 2.34153 10.527 2.81958 9.71316C2.87674 9.61164 2.94429 9.51528 3.01877 9.42753C3.08979 9.33977 3.16946 9.26062 3.3063 9.12813L4.02859 8.41062L5.47488 6.97902L8.39691 4.13821C9.06723 3.48263 10.1619 3.40691 10.8755 3.9128C10.9639 3.97474 11.0487 4.04013 11.1232 4.11584C11.1631 4.15025 11.1994 4.19155 11.2341 4.23113L11.4021 4.41696L12.0846 5.1706L13.4373 6.69509C14.3294 7.7206 15.2058 8.76161 16.0632 9.82328C16.4806 10.3395 16.9985 10.9641 17.6204 11.2291C15.0309 13.7877 12.4448 16.3568 9.86055 18.924C9.5938 18.6074 9.20061 18.3338 8.94773 18.0688C7.06839 16.109 5.14751 14.1922 3.21434 12.2803L3.20584 12.2804ZM14.1042 32.8253L12.1486 34.7903C11.8247 35.1069 11.4661 35.4906 11.2669 35.654C11.0193 35.8571 10.7473 36.0292 10.4598 36.1565C10.1723 36.289 9.86047 36.3767 9.54179 36.4249C9.38243 36.4473 9.22308 36.4593 9.06374 36.4645H8.38128L5.59608 36.4696H4.86861C4.71272 36.4696 4.61226 36.4559 4.48235 36.4301C4.23813 36.3767 4.0043 36.2718 3.80858 36.1169C3.4102 35.8123 3.16079 35.3288 3.15729 34.8298V31.9752V30.5609C3.16248 30.2305 3.21964 29.895 3.31664 29.5783C3.41884 29.2617 3.56433 28.9572 3.7462 28.6801C3.95059 28.3842 4.10994 28.2173 4.50485 27.8336L10.6781 21.701L22.1533 10.2932C22.1533 10.2932 22.1758 10.3104 22.1845 10.3242C24.3929 12.8794 27.2439 14.7943 28.7732 18.0156C28.7732 18.0208 28.7784 18.0294 28.7819 18.0328L21.9178 24.9481L14.1043 32.8236L14.1042 32.8253ZM29.9617 22.4874C31.841 24.4473 33.7619 26.3641 35.695 28.2759C36.4087 28.9367 36.5593 30.0293 36.0813 30.8431C36.0241 30.9447 35.9566 31.041 35.8821 31.1288C35.8111 31.2165 35.7314 31.2957 35.5946 31.4282L34.8723 32.1457L33.426 33.5773L30.504 36.4181C29.8337 37.0737 28.7389 37.1494 28.0254 36.6435C27.937 36.5816 27.8521 36.5162 27.7777 36.4405C27.7378 36.406 27.7014 36.3647 27.6668 36.3252L27.4988 36.1393L26.8163 35.3857L25.4636 33.8612C24.5715 32.8357 23.6951 31.7947 22.8377 30.733C22.4514 30.253 21.9734 29.6714 21.4052 29.3857L23.3348 27.5085C25.299 25.614 27.2718 23.7299 29.25 21.8526C29.489 22.078 29.7592 22.2845 29.9549 22.4875L29.9617 22.4874Z" fill="white"/>
</svg>
