<svg width="18" height="18" viewBox="0 0 18 18" fill="none" xmlns="http://www.w3.org/2000/svg">
<path d="M1.75781 0H16.2422C17.216 0 18 0.783984 18 1.75781V16.2422C18 17.216 17.216 18 16.2422 18H1.75781C0.783984 18 0 17.216 0 16.2422V1.75781C0 0.783984 0.783984 0 1.75781 0Z" fill="url(#paint0_linear_45_177)"/>
<path d="M10.996 2.3999H14.7642C15.2275 2.3999 15.6004 2.78306 15.6004 3.25899V9.55899C15.6004 10.0349 15.2275 10.4181 14.7642 10.4181H10.996C10.5328 10.4181 10.1599 10.0349 10.1599 9.55899V3.25899C10.1599 2.78306 10.5328 2.3999 10.996 2.3999ZM3.23654 2.3999H7.00478C7.46801 2.3999 7.84093 2.78306 7.84093 3.25899V14.1408C7.84093 14.6167 7.46801 14.9999 7.00478 14.9999H3.23654C2.77331 14.9999 2.40039 14.6167 2.40039 14.1408V3.25899C2.40039 2.78306 2.77331 2.3999 3.23654 2.3999Z" fill="white"/>
<defs>
<linearGradient id="paint0_linear_45_177" x1="9" y1="0" x2="9" y2="18" gradientUnits="userSpaceOnUse">
<stop stop-color="#2684FF"/>
<stop offset="1" stop-color="#0052CC"/>
</linearGradient>
</defs>
</svg>
